<svg id="Layer_1" data-name="Layer 1" xmlns="http://www.w3.org/2000/svg" viewBox="0 0 168.99 168.99"><defs><style>.cls-1{fill:#59646d;}.cls-2{fill:#acbac2;}.cls-3{fill:#808d99;}.cls-4{fill:#3a4f5d;}.cls-5{fill:#163742;}.cls-6{fill:#6e5ea7;}.cls-7{fill:#9292ca;}.cls-8{fill:#e9e5f2;}.cls-9{fill:#abafd6;}.cls-10{fill:#f3c233;}.cls-11{fill:#f0b30c;}.cls-12{fill:#ea9d11;}.cls-13{fill:#e88d07;}</style></defs><title>boots</title><rect class="cls-1" x="18.99" y="20.98" width="135.52" height="131.3"/><path class="cls-2" d="M1466,119.14h-3.71A15.28,15.28,0,0,0,1447,134.41v5.71h19Z" transform="translate(-1447.04 -119.14)"/><path class="cls-1" d="M1616,140.12v-5.71a15.26,15.26,0,0,0-14.49-15.23v20.94Z" transform="translate(-1447.04 -119.14)"/><path class="cls-3" d="M1548.28,140.12h53.27V119.18c-.26,0-.52,0-.79,0H1503l-.2,4.47-12-4.47H1466v21Z" transform="translate(-1447.04 -119.14)"/><polygon class="cls-3" points="18.99 137.87 18.99 121.21 18.99 20.98 0 20.98 0 153.14 18.99 153.14 18.99 137.87"/><rect class="cls-3" x="18.99" y="20.98" width="82.24" height="100.23"/><path class="cls-1" d="M1447,271.42v.6c0,8.9,6.84,16.11,15.28,16.11H1466V271.42Z" transform="translate(-1447.04 -119.14)"/><path class="cls-4" d="M1548.28,272.86v-.58H1466v15.85h134.73c.27,0,.53,0,.79,0V272.86Z" transform="translate(-1447.04 -119.14)"/><path class="cls-4" d="M1466,257v15.27h15.28A15.28,15.28,0,0,1,1466,257Z" transform="translate(-1447.04 -119.14)"/><path class="cls-4" d="M1466,240.35V257a15.28,15.28,0,0,0,15.28,15.27h67V240.35Z" transform="translate(-1447.04 -119.14)"/><polygon class="cls-4" points="154.51 20.98 154.51 36.09 154.51 120.12 154.51 136.6 154.51 152.28 168.99 152.28 168.99 20.98 154.51 20.98"/><path class="cls-4" d="M1601.55,155.39V140.12h-15.27A15.27,15.27,0,0,1,1601.55,155.39Z" transform="translate(-1447.04 -119.14)"/><path class="cls-4" d="M1586.28,140.12h-38V240.35h53.27v-85A15.27,15.27,0,0,0,1586.28,140.12Z" transform="translate(-1447.04 -119.14)"/><path class="cls-5" d="M1601.55,288.09c8.07-.45,14.49-7.73,14.49-16.67h-14.49Z" transform="translate(-1447.04 -119.14)"/><path class="cls-4" d="M1586.28,272.28h-38v.58h53.27V257A15.27,15.27,0,0,1,1586.28,272.28Z" transform="translate(-1447.04 -119.14)"/><path class="cls-4" d="M1548.28,272.28h38A15.27,15.27,0,0,0,1601.55,257V240.35h-53.27Z" transform="translate(-1447.04 -119.14)"/><path class="cls-1" d="M1589.11,167.9l12.44,17.61V140.12h-96.41l-2.52-5.88a3.45,3.45,0,0,1-.72,0l-7.2,5.86H1466v131.3h36.5l-25-25Z" transform="translate(-1447.04 -119.14)"/><polygon class="cls-5" points="154.51 66.37 142.07 48.76 95.36 64.53 81.38 48.76 30.54 127.33 55.48 152.28 154.51 152.28 154.51 66.37"/><rect class="cls-6" x="34.99" y="56.65" width="38.32" height="11.45"/><polygon class="cls-7" points="54.15 68.09 34.99 68.09 34.99 125.24 73.31 125.24 73.31 116.45 54.15 116.45 54.15 68.09"/><rect class="cls-6" x="54.15" y="68.09" width="19.16" height="48.35"/><rect class="cls-7" x="26.92" y="48.76" width="54.46" height="15.77"/><polygon class="cls-8" points="73.31 125.24 34.99 125.24 34.99 105.74 44.51 98.13 63.56 98.13 73.31 105.74 73.31 125.24"/><polygon class="cls-9" points="39.42 102.2 34.99 105.74 34.99 127.67 54.15 127.67 54.15 102.2 39.42 102.2"/><polygon class="cls-7" points="73.31 105.74 68.77 102.2 54.15 102.2 54.15 127.67 73.31 127.67 73.31 105.74"/><rect class="cls-10" x="30.53" y="116.95" width="47.24" height="11.22"/><polygon class="cls-10" points="46.2 40.81 46.2 48.76 54.15 56.71 54.15 40.81 46.2 40.81"/><polygon class="cls-11" points="62.1 48.76 62.1 40.81 54.15 40.81 54.15 56.71 54.15 56.71 62.1 48.76"/><rect class="cls-12" x="54.15" y="116.95" width="23.62" height="11.22"/><circle class="cls-13" cx="59.97" cy="122.57" r="2.56"/><circle class="cls-13" cx="69.52" cy="122.57" r="2.56"/><circle class="cls-11" cx="48.76" cy="122.57" r="2.56"/><circle class="cls-11" cx="38.33" cy="122.57" r="2.56"/><rect class="cls-6" x="95.68" y="56.65" width="38.32" height="11.45"/><polygon class="cls-7" points="114.84 68.09 95.68 68.09 95.68 125.24 134 125.24 134 116.45 114.84 116.45 114.84 68.09"/><rect class="cls-6" x="114.84" y="68.09" width="19.16" height="48.35"/><rect class="cls-7" x="87.61" y="48.76" width="54.46" height="15.77"/><polygon class="cls-8" points="134 125.24 95.68 125.24 95.68 105.74 105.19 98.13 124.25 98.13 134 105.74 134 125.24"/><polygon class="cls-9" points="100.11 102.2 95.68 105.74 95.68 127.67 114.84 127.67 114.84 102.2 100.11 102.2"/><polygon class="cls-7" points="134 105.74 129.46 102.2 114.84 102.2 114.84 127.67 134 127.67 134 105.74"/><polygon class="cls-10" points="106.89 40.81 106.89 48.76 114.84 56.71 114.84 40.81 106.89 40.81"/><polygon class="cls-11" points="122.79 48.76 122.79 40.81 114.84 40.81 114.84 56.71 114.84 56.71 122.79 48.76"/><rect class="cls-10" x="91.22" y="116.95" width="23.62" height="11.22"/><rect class="cls-12" x="114.84" y="116.95" width="23.62" height="11.22"/><circle class="cls-13" cx="120.66" cy="122.57" r="2.56"/><circle class="cls-13" cx="130.2" cy="122.57" r="2.56"/><circle class="cls-11" cx="109.44" cy="122.57" r="2.56"/><circle class="cls-11" cx="99.01" cy="122.57" r="2.56"/></svg>