<svg id="Layer_1" data-name="Layer 1" xmlns="http://www.w3.org/2000/svg" viewBox="0 0 251.16 97.53"><defs><style>.cls-1{fill:#f0b30c;}.cls-2{fill:#f4d02f;}.cls-3{fill:#f4dc62;}.cls-4{fill:#ea9d11;}.cls-5{fill:#e88d07;}.cls-6{fill:#d1dce4;}.cls-7{fill:#dd5648;}.cls-8{fill:#fffeff;}.cls-9{fill:#0c2839;}.cls-10{fill:#f3c233;}.cls-11{fill:#de6e4e;}</style></defs><title>coins</title><ellipse class="cls-1" cx="117.58" cy="78.66" rx="117.58" ry="18.87"/><rect class="cls-1" y="50.23" width="235.16" height="29.51"/><path class="cls-2" d="M1652.85,222.4c20.43,5.58,58.2,9.32,101.42,9.32,64.94,0,117.58-8.44,117.58-18.87a2.7,2.7,0,0,0,0-.49Z" transform="translate(-1636.88 -162.86)"/><path class="cls-3" d="M1668.94,221.7c18.12,4.5,49.65,7.48,85.52,7.48,52.19,0,95.19-6.3,101.06-14.43a7.17,7.17,0,0,0-1.49-1.47Z" transform="translate(-1636.88 -162.86)"/><path class="cls-3" d="M1754.46,200.32c-52.18,0-95.18,6.31-101,14.43,1.84,2.54,7.3,4.9,15.53,6.95L1854,213.28C1844.35,205.88,1803.46,200.32,1754.46,200.32Z" transform="translate(-1636.88 -162.86)"/><path class="cls-4" d="M1754.46,194.22c-64.93,0-117.58,8.45-117.58,18.87,0,3.49,5.9,6.75,16.17,9.55l219-9.55C1870.42,202.9,1818.37,194.22,1754.46,194.22Z" transform="translate(-1636.88 -162.86)"/><path class="cls-5" d="M1754.46,200.32c52.19,0,95.19,6.31,101.06,14.43a3.22,3.22,0,0,0,.69-1.9c0-9-45.56-16.33-101.75-16.33s-101.74,7.31-101.74,16.33a3.22,3.22,0,0,0,.69,1.9C1659.28,206.63,1702.28,200.32,1754.46,200.32Z" transform="translate(-1636.88 -162.86)"/><path class="cls-6" d="M1803.13,212.09c0,2.8-21.79,6.29-48.67,6.29s-48.66-3.49-48.66-6.29,21.79-3.84,48.66-3.84S1803.13,209.29,1803.13,212.09Z" transform="translate(-1636.88 -162.86)"/><ellipse class="cls-7" cx="1765.87" cy="217.85" rx="1.72" ry="13.83" transform="translate(-358 1766.3) rotate(-81.15)"/><ellipse class="cls-7" cx="1742.92" cy="217.85" rx="13.83" ry="1.72" transform="translate(-1649.65 107.94) rotate(-8.85)"/><path class="cls-3" d="M1757.28,219.21l21.51-3.39c2.5-.49.73-1.32-2.81-1.32h-43c-3.54,0-5.31.83-2.81,1.32l21.51,3.39A17.72,17.72,0,0,0,1757.28,219.21Z" transform="translate(-1636.88 -162.86)"/><ellipse class="cls-8" cx="104.54" cy="49.61" rx="9.68" ry="1.01"/><ellipse class="cls-9" cx="104.54" cy="49.61" rx="3.63" ry="0.38"/><ellipse class="cls-8" cx="130.63" cy="49.61" rx="9.68" ry="1.01"/><ellipse class="cls-9" cx="130.63" cy="49.61" rx="3.63" ry="0.38"/><ellipse class="cls-10" cx="1737.33" cy="208.03" rx="1.56" ry="21.69" transform="translate(-237.71 1761.93) rotate(-85.69)"/><ellipse class="cls-10" cx="1771.6" cy="208.03" rx="21.69" ry="1.56" transform="matrix(1, -0.08, 0.08, 1, -1647.51, -28.98)"/><ellipse class="cls-10" cx="117.94" cy="44.53" rx="11.42" ry="2.95"/><path class="cls-11" d="M1774.16,217.74c-3.41.23-7,.4-10.8.51l-2.64.42c6,1.23,13.08,2.05,16.68,1.88C1781.24,220.37,1779.75,219.14,1774.16,217.74Z" transform="translate(-1636.88 -162.86)"/><path class="cls-11" d="M1729.73,219.42c-1,.6-.49,1,1.65,1.13,3.62.17,10.73-.66,16.74-1.89l-.17,0Z" transform="translate(-1636.88 -162.86)"/><ellipse class="cls-1" cx="133.58" cy="47.3" rx="117.58" ry="18.87"/><rect class="cls-1" x="16" y="18.87" width="235.16" height="29.51"/><path class="cls-2" d="M1668.85,191.05c20.43,5.57,58.2,9.32,101.42,9.32,64.94,0,117.58-8.45,117.58-18.88a2.7,2.7,0,0,0,0-.49Z" transform="translate(-1636.88 -162.86)"/><path class="cls-3" d="M1684.94,190.34c18.12,4.5,49.65,7.48,85.52,7.48,52.19,0,95.19-6.3,101.06-14.43a7.7,7.7,0,0,0-1.49-1.47Z" transform="translate(-1636.88 -162.86)"/><path class="cls-3" d="M1770.46,169c-52.18,0-95.18,6.31-101,14.43,1.84,2.54,7.3,4.9,15.53,7L1870,181.92C1860.35,174.52,1819.46,169,1770.46,169Z" transform="translate(-1636.88 -162.86)"/><path class="cls-4" d="M1770.46,162.86c-64.93,0-117.58,8.45-117.58,18.87,0,3.49,5.9,6.75,16.17,9.55l219-9.55C1886.42,171.54,1834.37,162.86,1770.46,162.86Z" transform="translate(-1636.88 -162.86)"/><path class="cls-5" d="M1770.46,169c52.19,0,95.19,6.31,101.06,14.43a3.22,3.22,0,0,0,.69-1.9c0-9-45.56-16.33-101.75-16.33s-101.74,7.32-101.74,16.33a3.22,3.22,0,0,0,.69,1.9C1675.28,175.27,1718.28,169,1770.46,169Z" transform="translate(-1636.88 -162.86)"/><path class="cls-6" d="M1819.13,180.73c0,2.8-21.79,6.29-48.67,6.29s-48.66-3.49-48.66-6.29,21.79-3.84,48.66-3.84S1819.13,177.93,1819.13,180.73Z" transform="translate(-1636.88 -162.86)"/><ellipse class="cls-7" cx="1781.87" cy="186.49" rx="1.72" ry="13.83" transform="translate(-313.48 1755.58) rotate(-81.15)"/><ellipse class="cls-7" cx="1758.92" cy="186.49" rx="13.83" ry="1.72" transform="translate(-1644.63 110.02) rotate(-8.85)"/><path class="cls-3" d="M1773.28,187.85l21.51-3.39c2.5-.49.73-1.32-2.81-1.32h-43c-3.54,0-5.31.83-2.81,1.32l21.51,3.39A17.72,17.72,0,0,0,1773.28,187.85Z" transform="translate(-1636.88 -162.86)"/><ellipse class="cls-8" cx="120.54" cy="18.25" rx="9.68" ry="1.01"/><ellipse class="cls-9" cx="120.54" cy="18.25" rx="3.63" ry="0.38"/><ellipse class="cls-8" cx="146.63" cy="18.25" rx="9.68" ry="1.01"/><ellipse class="cls-9" cx="146.63" cy="18.25" rx="3.63" ry="0.38"/><ellipse class="cls-10" cx="1753.33" cy="176.68" rx="1.56" ry="21.69" transform="translate(-191.64 1748.88) rotate(-85.69)"/><ellipse class="cls-10" cx="1787.6" cy="176.68" rx="21.69" ry="1.56" transform="matrix(1, -0.08, 0.08, 1, -1645.11, -27.87)"/><ellipse class="cls-10" cx="133.94" cy="13.17" rx="11.42" ry="2.95"/><path class="cls-11" d="M1790.16,186.38c-3.41.23-7,.41-10.8.51l-2.64.42c6,1.23,13.08,2.05,16.68,1.88C1797.24,189,1795.75,187.78,1790.16,186.38Z" transform="translate(-1636.88 -162.86)"/><path class="cls-11" d="M1745.73,188.07c-1,.59-.49,1,1.65,1.12,3.62.17,10.73-.65,16.74-1.89l-.17,0Z" transform="translate(-1636.88 -162.86)"/></svg>