<svg id="Layer_1" data-name="Layer 1" xmlns="http://www.w3.org/2000/svg" viewBox="0 0 168.19 168.19"><defs><style>.cls-1{fill:#59646d;}.cls-2{fill:#acbac2;}.cls-3{fill:#808d99;}.cls-4{fill:#3a4f5d;}.cls-5{fill:#163742;}.cls-6{fill:#abafd6;}.cls-7{fill:none;stroke:#fff;stroke-linecap:round;stroke-miterlimit:10;stroke-width:3px;}.cls-8{fill:#f0b30c;}.cls-9{fill:#6e5ea7;}.cls-10{fill:#ea9d11;}.cls-11{fill:#e88d07;}</style></defs><title>helmet</title><rect class="cls-1" x="18.9" y="20.88" width="134.88" height="130.68"/><path class="cls-2" d="M697.41,121.21h-3.69a15.2,15.2,0,0,0-15.2,15.2v5.68h18.89Z" transform="translate(-678.52 -121.21)"/><path class="cls-1" d="M846.71,142.09v-5.68a15.19,15.19,0,0,0-14.42-15.16v20.84Z" transform="translate(-678.52 -121.21)"/><path class="cls-3" d="M779.27,142.09h53V121.25c-.26,0-.52,0-.78,0H734.16l-.19,4.45L722,121.21H697.41v20.88Z" transform="translate(-678.52 -121.21)"/><polygon class="cls-3" points="18.9 137.22 18.9 120.63 18.9 20.88 0 20.88 0 152.42 18.9 152.42 18.9 137.22"/><rect class="cls-3" x="18.9" y="20.88" width="81.85" height="99.76"/><path class="cls-1" d="M678.52,272.77v.6c0,8.85,6.8,16,15.2,16h3.69V272.77Z" transform="translate(-678.52 -121.21)"/><path class="cls-4" d="M779.27,274.2v-.57H697.41V289.4h134.1c.26,0,.52,0,.78,0V274.2Z" transform="translate(-678.52 -121.21)"/><path class="cls-4" d="M697.41,258.43v15.2h15.21A15.21,15.21,0,0,1,697.41,258.43Z" transform="translate(-678.52 -121.21)"/><path class="cls-4" d="M697.41,241.84v16.59a15.21,15.21,0,0,0,15.21,15.2h66.65V241.84Z" transform="translate(-678.52 -121.21)"/><polygon class="cls-4" points="153.78 20.88 153.78 35.92 153.78 119.55 153.78 135.95 153.78 151.56 168.19 151.56 168.19 20.88 153.78 20.88"/><path class="cls-4" d="M832.29,157.29v-15.2h-15.2A15.2,15.2,0,0,1,832.29,157.29Z" transform="translate(-678.52 -121.21)"/><path class="cls-4" d="M817.09,142.09H779.27v99.75h53V157.29A15.2,15.2,0,0,0,817.09,142.09Z" transform="translate(-678.52 -121.21)"/><path class="cls-5" d="M832.29,289.36c8-.45,14.42-7.7,14.42-16.59H832.29Z" transform="translate(-678.52 -121.21)"/><path class="cls-4" d="M817.09,273.63H779.27v.57h53V258.43A15.2,15.2,0,0,1,817.09,273.63Z" transform="translate(-678.52 -121.21)"/><path class="cls-4" d="M779.27,273.63h37.82a15.2,15.2,0,0,0,15.2-15.2V241.84h-53Z" transform="translate(-678.52 -121.21)"/><path class="cls-1" d="M763.77,176l68.52,58V142.09H736.34l-2.51-5.85a3.35,3.35,0,0,1-.71,0l-7.18,5.84H697.41V272.77h67.7l-48.94-48.94Z" transform="translate(-678.52 -121.21)"/><polygon class="cls-5" points="153.78 112.77 85.26 54.79 37.66 102.62 86.6 151.56 153.78 151.56 153.78 112.77"/><path class="cls-6" d="M762.51,174.11a47.25,47.25,0,0,0-47.25,47.25h47.25V174.11Z" transform="translate(-678.52 -121.21)"/><path class="cls-7" d="M746,181.22A47.25,47.25,0,0,0,728.56,195" transform="translate(-678.52 -121.21)"/><polygon class="cls-8" points="77.63 47.99 77.63 113.73 83.99 120.09 83.99 47.99 77.63 47.99"/><path class="cls-9" d="M808.74,211.62A47.29,47.29,0,0,0,771,174.88v36.74Z" transform="translate(-678.52 -121.21)"/><path class="cls-9" d="M771,221.36h38.8a47.33,47.33,0,0,0-1-9.74H771Z" transform="translate(-678.52 -121.21)"/><path class="cls-9" d="M771,174.88a47.41,47.41,0,0,0-6.36-.72v37.46H771Z" transform="translate(-678.52 -121.21)"/><rect class="cls-9" x="86.07" y="90.41" width="6.37" height="9.73"/><polygon class="cls-10" points="90.36 113.94 90.36 47.99 83.99 47.99 83.99 120.09 84.1 120.2 90.36 113.94"/><rect class="cls-8" x="32.05" y="92.49" width="52.15" height="12.73"/><rect class="cls-10" x="83.99" y="92.49" width="52.15" height="12.73"/><circle class="cls-10" cx="83.99" cy="98.87" r="2.08"/><circle class="cls-10" cx="83.99" cy="86.13" r="2.08"/><circle class="cls-10" cx="83.99" cy="73.73" r="2.08"/><circle class="cls-10" cx="83.99" cy="61.75" r="2.08"/><circle class="cls-11" cx="122.08" cy="98.86" r="2.08"/><circle class="cls-11" cx="109.53" cy="98.86" r="2.08"/><circle class="cls-11" cx="98.06" cy="98.87" r="2.08"/></svg>