<svg id="Layer_1" data-name="Layer 1" xmlns="http://www.w3.org/2000/svg" viewBox="0 0 168.99 168.99"><defs><style>.cls-1{fill:#59646d;}.cls-2{fill:#acbac2;}.cls-3{fill:#808d99;}.cls-4{fill:#3a4f5d;}.cls-5{fill:#163742;}.cls-6{fill:#9292ca;}.cls-7{fill:#542b8e;}.cls-8{fill:#6e5ea7;}.cls-9{fill:#f3c233;}.cls-10{fill:#abafd6;}.cls-11{fill:#ea9d11;}.cls-12{fill:#e88d07;}.cls-13{fill:#f0b30c;}.cls-14{fill:#e1752f;}.cls-15{fill:none;}</style></defs><title>chest</title><rect class="cls-1" x="18.99" y="20.98" width="135.52" height="131.3"/><path class="cls-2" d="M1276.19,119.3h-3.71a15.28,15.28,0,0,0-15.28,15.28v5.7h19Z" transform="translate(-1257.2 -119.3)"/><path class="cls-1" d="M1426.2,140.28v-5.7a15.27,15.27,0,0,0-14.49-15.24v20.94Z" transform="translate(-1257.2 -119.3)"/><path class="cls-3" d="M1358.43,140.28h53.28V119.34c-.26,0-.52,0-.79,0h-97.8l-.2,4.48-12-4.48h-24.75v21Z" transform="translate(-1257.2 -119.3)"/><polygon class="cls-3" points="18.99 137.87 18.99 121.21 18.99 20.98 0 20.98 0 153.14 18.99 153.14 18.99 137.87"/><rect class="cls-3" x="18.99" y="20.98" width="82.24" height="100.23"/><path class="cls-1" d="M1257.2,271.58v.61c0,8.89,6.84,16.11,15.28,16.11h3.71V271.58Z" transform="translate(-1257.2 -119.3)"/><path class="cls-4" d="M1358.43,273v-.57h-82.24V288.3h134.73c.27,0,.53,0,.79,0V273Z" transform="translate(-1257.2 -119.3)"/><path class="cls-4" d="M1276.19,257.17v15.28h15.28A15.28,15.28,0,0,1,1276.19,257.17Z" transform="translate(-1257.2 -119.3)"/><path class="cls-4" d="M1276.19,240.51v16.66a15.28,15.28,0,0,0,15.28,15.28h67V240.51Z" transform="translate(-1257.2 -119.3)"/><polygon class="cls-4" points="154.51 20.98 154.51 36.09 154.51 120.12 154.51 136.6 154.51 152.28 168.99 152.28 168.99 20.98 154.51 20.98"/><path class="cls-4" d="M1411.71,155.56V140.28h-15.27A15.27,15.27,0,0,1,1411.71,155.56Z" transform="translate(-1257.2 -119.3)"/><path class="cls-4" d="M1396.44,140.28h-38V240.51h53.28V155.56A15.27,15.27,0,0,0,1396.44,140.28Z" transform="translate(-1257.2 -119.3)"/><path class="cls-5" d="M1411.71,288.26c8.07-.46,14.49-7.74,14.49-16.68h-14.49Z" transform="translate(-1257.2 -119.3)"/><path class="cls-4" d="M1396.44,272.45h-38V273h53.28V257.17A15.27,15.27,0,0,1,1396.44,272.45Z" transform="translate(-1257.2 -119.3)"/><path class="cls-4" d="M1358.43,272.45h38a15.27,15.27,0,0,0,15.27-15.28V240.51h-53.28Z" transform="translate(-1257.2 -119.3)"/><path class="cls-1" d="M1375.29,151.55l36.42,32.63v-43.9H1315.3l-2.52-5.88a3.45,3.45,0,0,1-.72,0l-7.2,5.86h-28.67v131.3H1355l-46-46Z" transform="translate(-1257.2 -119.3)"/><polygon class="cls-5" points="154.51 64.87 118.09 32.25 51.82 106.29 97.81 152.28 154.51 152.28 154.51 64.87"/><path class="cls-6" d="M1316.06,173.56V154.72h-6.84v22h3.67A3.17,3.17,0,0,0,1316.06,173.56Z" transform="translate(-1257.2 -119.3)"/><path class="cls-7" d="M1372.12,176.73h2v-22H1369v18.84A3.17,3.17,0,0,0,1372.12,176.73Z" transform="translate(-1257.2 -119.3)"/><rect class="cls-8" x="86.56" y="90.86" width="10.52" height="10.52" rx="3.8"/><path class="cls-9" d="M1341.68,167.84a23.12,23.12,0,0,0,7-1.07c6.19-2,10.95-6.47,12.55-12.05H1358c-1.31,6.71-8.12,11.82-16.34,11.82s-15-5.11-16.33-11.82h-3.16C1324.34,162.25,1332.24,167.83,1341.68,167.84Z" transform="translate(-1257.2 -119.3)"/><path class="cls-8" d="M1341.66,166.54c8.22,0,15-5.11,16.34-11.82h-32.67C1326.64,161.43,1333.45,166.54,1341.66,166.54Z" transform="translate(-1257.2 -119.3)"/><path class="cls-10" d="M1324.65,191.8a4.87,4.87,0,0,1,4.87-4.87h2.35l32.21-32.21h-2.82c-1.61,5.58-6.38,10.09-12.6,12.05a23,23,0,0,1-7,1.07h0c-9.48,0-17.42-5.59-19.6-13.12h-6v18.84a3.17,3.17,0,0,1-3.17,3.17h-3.67v32.85l15.43-15.43Z" transform="translate(-1257.2 -119.3)"/><polygon class="cls-10" points="52.02 121.62 57.86 121.62 52.02 115.78 52.02 121.62"/><path class="cls-6" d="M1324.65,191.8v2.35l7.22-7.22h-2.35A4.87,4.87,0,0,0,1324.65,191.8Z" transform="translate(-1257.2 -119.3)"/><path class="cls-7" d="M1374.16,176.73h-2a3.17,3.17,0,0,1-3.17-3.17V154.72h-4.87l-32.21,32.21h2.88a4.87,4.87,0,0,1,4.87,4.87V197a4.87,4.87,0,0,1-4.87,4.87h-5.23a4.87,4.87,0,0,1-4.87-4.87v-2.89l-15.43,15.43v25.5l5.84,5.84h59.1Zm-34.54,39.88a4.07,4.07,0,0,1-4.07,4.07h-2.37a4.08,4.08,0,0,1-4.08-4.07v-2.38a4.08,4.08,0,0,1,4.08-4.07h2.37a4.07,4.07,0,0,1,4.07,4.07Zm14.66.27a3.8,3.8,0,0,1-3.8,3.8h-2.92a3.8,3.8,0,0,1-3.8-3.8V214a3.8,3.8,0,0,1,3.8-3.8h2.92a3.8,3.8,0,0,1,3.8,3.8Zm4.46-19.43a4.46,4.46,0,0,1-4.46,4.46h-6.06a4.46,4.46,0,0,1-4.46-4.46v-6.06a4.46,4.46,0,0,1,4.46-4.46h6.06a4.46,4.46,0,0,1,4.46,4.46Z" transform="translate(-1257.2 -119.3)"/><rect class="cls-8" x="86.56" y="67.63" width="14.97" height="14.97" rx="4.45"/><path class="cls-8" d="M1324.65,197a4.87,4.87,0,0,0,4.87,4.87h5.23a4.87,4.87,0,0,0,4.87-4.87V191.8a4.87,4.87,0,0,0-4.87-4.87h-2.88l-7.22,7.22Z" transform="translate(-1257.2 -119.3)"/><rect class="cls-8" x="71.9" y="90.86" width="10.52" height="10.52" rx="4.07"/><path class="cls-5" d="M1368.14,154.72v18.84a3.17,3.17,0,0,0,3.17,3.17h2.79v-22Z" transform="translate(-1257.2 -119.3)"/><path class="cls-11" d="M1374.1,151.56v-3.92h-3.73v3.91h3.73Z" transform="translate(-1257.2 -119.3)"/><path class="cls-12" d="M1374.1,151.56v23.35a26.65,26.65,0,0,0,22.34-11.67h0A27.11,27.11,0,0,0,1374.1,151.56Z" transform="translate(-1257.2 -119.3)"/><path class="cls-9" d="M1374.1,174.92h0Z" transform="translate(-1257.2 -119.3)"/><path class="cls-11" d="M1373.8,151.55h-3.43v23.37h3.73V151.56Z" transform="translate(-1257.2 -119.3)"/><path class="cls-9" d="M1309.3,151.56v-3.92H1313v3.91h-3.73Z" transform="translate(-1257.2 -119.3)"/><path class="cls-13" d="M1309.3,151.56v23.35A26.65,26.65,0,0,1,1287,163.24h0A27.11,27.11,0,0,1,1309.3,151.56Z" transform="translate(-1257.2 -119.3)"/><path class="cls-9" d="M1309.3,174.92h0Z" transform="translate(-1257.2 -119.3)"/><path class="cls-9" d="M1309.6,151.55H1313v23.37h-3.73V151.56Z" transform="translate(-1257.2 -119.3)"/><path class="cls-14" d="M1379.17,226h-19.64a21.94,21.94,0,0,1,0,25.57h19.64Z" transform="translate(-1257.2 -119.3)"/><path class="cls-12" d="M1359.53,226h-35.68a21.94,21.94,0,0,0,0,25.57h35.68a21.94,21.94,0,0,0,0-25.57Z" transform="translate(-1257.2 -119.3)"/><circle class="cls-13" cx="84.49" cy="119.48" r="21.17"/><path class="cls-13" d="M1323.85,226h-19.64v25.57h19.64a21.94,21.94,0,0,1,0-25.57Z" transform="translate(-1257.2 -119.3)"/><circle class="cls-9" cx="84.49" cy="119.48" r="19.48"/><circle class="cls-11" cx="84.49" cy="119.48" r="18.21"/><path class="cls-15" d="M1338.22,172a23.32,23.32,0,0,0,7-1.06,23.43,23.43,0,0,1-7,1.06Z" transform="translate(-1257.2 -119.3)"/></svg>