<svg id="Layer_1" data-name="Layer 1" xmlns="http://www.w3.org/2000/svg" viewBox="0 0 168.12 168.12"><defs><style>.cls-1{fill:#59646d;}.cls-2{fill:#acbac2;}.cls-3{fill:#808d99;}.cls-4{fill:#3a4f5d;}.cls-5{fill:#163742;}.cls-6{fill:#ccc;}.cls-7{fill:#f2f2f2;}.cls-8{fill:#999;}.cls-9{fill:#e6e6e6;}.cls-10{fill:#b3b3b3;}.cls-11{fill:#f3c233;}.cls-12{fill:#b27e50;}.cls-13{fill:#99643f;}.cls-14{fill:#42210b;}</style></defs><title>hand-2</title><rect class="cls-1" x="18.89" y="20.87" width="134.82" height="130.62"/><path class="cls-2" d="M890.35,120.54h-3.69a15.2,15.2,0,0,0-15.2,15.2v5.67h18.89Z" transform="translate(-871.46 -120.54)"/><path class="cls-1" d="M1039.58,141.41v-5.67a15.19,15.19,0,0,0-14.41-15.16v20.83Z" transform="translate(-871.46 -120.54)"/><path class="cls-3" d="M972.17,141.41h53V120.58c-.26,0-.52,0-.79,0H927.09l-.2,4.45L915,120.54H890.35v20.87Z" transform="translate(-871.46 -120.54)"/><polygon class="cls-3" points="18.89 137.15 18.89 120.58 18.89 20.87 0 20.87 0 152.35 18.89 152.35 18.89 137.15"/><rect class="cls-3" x="18.89" y="20.87" width="81.82" height="99.71"/><path class="cls-1" d="M871.46,272v.61c0,8.85,6.8,16,15.2,16h3.69V272Z" transform="translate(-871.46 -120.54)"/><path class="cls-4" d="M972.17,273.47v-.58H890.35v15.77h134c.27,0,.53,0,.79,0V273.47Z" transform="translate(-871.46 -120.54)"/><path class="cls-4" d="M890.35,257.7v15.19h15.2A15.2,15.2,0,0,1,890.35,257.7Z" transform="translate(-871.46 -120.54)"/><path class="cls-4" d="M890.35,241.12V257.7a15.2,15.2,0,0,0,15.2,15.19h66.62V241.12Z" transform="translate(-871.46 -120.54)"/><polygon class="cls-4" points="153.71 20.87 153.71 35.9 153.71 119.5 153.71 135.89 153.71 151.49 168.12 151.49 168.12 20.87 153.71 20.87"/><path class="cls-4" d="M1025.17,156.61v-15.2H1010A15.2,15.2,0,0,1,1025.17,156.61Z" transform="translate(-871.46 -120.54)"/><path class="cls-4" d="M1010,141.41H972.17v99.71h53V156.61A15.2,15.2,0,0,0,1010,141.41Z" transform="translate(-871.46 -120.54)"/><path class="cls-5" d="M1025.17,288.62c8-.45,14.41-7.69,14.41-16.59h-14.41Z" transform="translate(-871.46 -120.54)"/><path class="cls-4" d="M1010,272.89H972.17v.58h53V257.7A15.19,15.19,0,0,1,1010,272.89Z" transform="translate(-871.46 -120.54)"/><path class="cls-4" d="M972.17,272.89H1010a15.19,15.19,0,0,0,15.19-15.19V241.12h-53Z" transform="translate(-871.46 -120.54)"/><path class="cls-1" d="M1009.92,150.2l15.25,7.05V141.41H929.26l-2.51-5.84a3.35,3.35,0,0,1-.71,0l-7.17,5.83H890.35V272h29.89l-13.41-19Z" transform="translate(-871.46 -120.54)"/><polygon class="cls-5" points="153.71 36.7 138.46 29.66 35.37 132.45 48.78 151.49 153.71 151.49 153.71 36.7"/><polygon class="cls-6" points="33.59 122.81 39.45 128.67 37.1 131.01 30.46 124.37 30.45 124.38 29.66 126.74 41.38 138.46 43.68 137.6 45.31 134.53 66.42 113.42 54.7 101.7 33.59 122.81"/><polygon class="cls-7" points="39.45 128.67 33.59 122.81 30.46 124.37 37.1 131.01 39.45 128.67"/><polygon class="cls-8" points="66.72 113.12 126.76 61.8 138.46 29.66 138.46 29.66 60.86 107.26 66.72 113.12"/><polygon class="cls-7" points="55 101.4 60.86 107.26 138.46 29.66 103.85 39.22 55 101.4"/><polygon class="cls-9" points="134.78 33.04 104.69 41.36 58.74 99.83 63.37 104.46 134.77 33.05 134.78 33.04"/><polygon class="cls-6" points="124.61 60.99 134.77 33.05 63.37 104.46 68.15 109.24 124.61 60.99"/><path class="cls-10" d="M972.63,184l-39.39,39.39,1.59,1.6,41-41A2.26,2.26,0,0,0,972.63,184Z" transform="translate(-871.46 -120.54)"/><path class="cls-9" d="M975.82,187.2a2.25,2.25,0,0,0,0-3.18l-41,41,1.59,1.59Z" transform="translate(-871.46 -120.54)"/><rect class="cls-11" x="928.57" y="207.86" width="7.5" height="39.89" rx="3.66" transform="translate(-759.47 605.43) rotate(-45)"/><rect class="cls-12" x="904.08" y="232.77" width="26.53" height="8.24" transform="translate(-770.28 597.5) rotate(-45)"/><rect class="cls-13" x="909.94" y="238.58" width="26.53" height="8.33" transform="translate(-772.71 603.36) rotate(-45)"/><rect class="cls-13" x="919.77" y="229.64" width="1.4" height="8.24" transform="translate(-767.16 598.79) rotate(-45)"/><rect class="cls-13" x="913.2" y="236.21" width="1.4" height="8.24" transform="translate(-773.72 596.07) rotate(-45)"/><rect class="cls-14" x="925.63" y="235.46" width="1.4" height="8.33" transform="translate(-769.59 604.65) rotate(-45)"/><rect class="cls-14" x="919.06" y="242.02" width="1.4" height="8.33" transform="translate(-776.15 601.93) rotate(-45)"/></svg>