<svg id="Layer_1" data-name="Layer 1" xmlns="http://www.w3.org/2000/svg" viewBox="0 0 168.12 168.12"><defs><style>.cls-1{fill:#59646d;}.cls-2{fill:#acbac2;}.cls-3{fill:#808d99;}.cls-4{fill:#3a4f5d;}.cls-5{fill:#163742;}.cls-6{fill:#ccc;}.cls-7{fill:#f2f2f2;}.cls-8{fill:#999;}.cls-9{fill:#e6e6e6;}.cls-10{fill:#b3b3b3;}.cls-11{fill:#f3c233;}.cls-12{fill:#b27e50;}.cls-13{fill:#99643f;}.cls-14{fill:#42210b;}</style></defs><title>hand-1</title><rect class="cls-1" x="18.89" y="20.87" width="134.82" height="130.62"/><path class="cls-2" d="M1083.22,120.8h-3.69a15.21,15.21,0,0,0-15.2,15.2v5.67h18.89Z" transform="translate(-1064.33 -120.8)"/><path class="cls-1" d="M1232.45,141.67V136A15.18,15.18,0,0,0,1218,120.84v20.83Z" transform="translate(-1064.33 -120.8)"/><path class="cls-3" d="M1165,141.67h53V120.84c-.26,0-.52,0-.79,0H1120l-.2,4.45-11.92-4.45h-24.62v20.87Z" transform="translate(-1064.33 -120.8)"/><polygon class="cls-3" points="18.89 137.15 18.89 120.58 18.89 20.87 0 20.87 0 152.35 18.89 152.35 18.89 137.15"/><rect class="cls-3" x="18.89" y="20.87" width="81.82" height="99.71"/><path class="cls-1" d="M1064.33,272.29v.6c0,8.85,6.81,16,15.2,16h3.69V272.29Z" transform="translate(-1064.33 -120.8)"/><path class="cls-4" d="M1165,273.72v-.57h-81.82v15.77h134c.27,0,.53,0,.79,0V273.72Z" transform="translate(-1064.33 -120.8)"/><path class="cls-4" d="M1083.22,258v15.19h15.2A15.2,15.2,0,0,1,1083.22,258Z" transform="translate(-1064.33 -120.8)"/><path class="cls-4" d="M1083.22,241.38V258a15.2,15.2,0,0,0,15.2,15.19H1165V241.38Z" transform="translate(-1064.33 -120.8)"/><polygon class="cls-4" points="153.71 20.87 153.71 35.9 153.71 119.5 153.71 135.89 153.71 151.49 168.12 151.49 168.12 20.87 153.71 20.87"/><path class="cls-4" d="M1218,156.87v-15.2h-15.19A15.19,15.19,0,0,1,1218,156.87Z" transform="translate(-1064.33 -120.8)"/><path class="cls-4" d="M1202.85,141.67H1165v99.71h53V156.87A15.19,15.19,0,0,0,1202.85,141.67Z" transform="translate(-1064.33 -120.8)"/><path class="cls-5" d="M1218,288.88c8-.45,14.41-7.7,14.41-16.59H1218Z" transform="translate(-1064.33 -120.8)"/><path class="cls-1" d="M1202.79,150.46l15.25,7V141.67h-95.91l-2.5-5.85a4.34,4.34,0,0,1-.72,0l-7.17,5.83h-28.52V272.29h29.89l-13.41-19Z" transform="translate(-1064.33 -120.8)"/><path class="cls-4" d="M1202.85,273.15H1165v.57h53V258A15.19,15.19,0,0,1,1202.85,273.15Z" transform="translate(-1064.33 -120.8)"/><path class="cls-4" d="M1165,273.15h37.81A15.19,15.19,0,0,0,1218,258V241.38h-53Z" transform="translate(-1064.33 -120.8)"/><rect class="cls-1" x="18.89" y="20.87" width="134.74" height="130.62"/><polygon class="cls-5" points="153.67 120.58 68.7 39.22 45.79 61.8 123.78 151.49 154.18 151.49 153.67 120.58"/><polygon class="cls-6" points="138.97 122.81 133.11 128.67 135.45 131.01 142.1 124.37 142.1 124.38 142.9 126.74 131.18 138.46 128.88 137.6 127.25 134.53 106.14 113.42 117.86 101.7 138.97 122.81"/><polygon class="cls-7" points="133.11 128.67 138.97 122.81 142.1 124.37 135.45 131.01 133.11 128.67"/><polygon class="cls-8" points="105.84 113.12 45.79 61.8 34.1 29.66 34.1 29.66 111.7 107.26 105.84 113.12"/><polygon class="cls-7" points="117.56 101.4 111.7 107.26 34.1 29.66 68.7 39.22 117.56 101.4"/><polygon class="cls-9" points="37.78 33.04 67.87 41.36 113.82 99.83 109.19 104.46 37.78 33.05 37.78 33.04"/><polygon class="cls-6" points="47.95 60.99 37.78 33.05 109.19 104.46 104.41 109.24 47.95 60.99"/><path class="cls-10" d="M1135.72,184.27l39.4,39.4-1.6,1.59-41-41A2.26,2.26,0,0,1,1135.72,184.27Z" transform="translate(-1064.33 -120.8)"/><path class="cls-9" d="M1132.53,187.46a2.26,2.26,0,0,1,0-3.19l41,41-1.59,1.59Z" transform="translate(-1064.33 -120.8)"/><rect class="cls-11" x="1172.28" y="208.12" width="7.5" height="39.89" rx="3.66" transform="translate(782.02 1100.1) rotate(-135)"/><rect class="cls-12" x="1186.89" y="223.88" width="8.24" height="26.53" transform="translate(-883.18 790.83) rotate(-45)"/><rect class="cls-13" x="1180.98" y="229.74" width="8.33" height="26.53" transform="translate(-889.04 788.4) rotate(-45)"/><rect class="cls-13" x="1183.76" y="233.32" width="8.24" height="1.4" transform="translate(-881.89 787.7) rotate(-45)"/><rect class="cls-13" x="1190.33" y="239.88" width="8.24" height="1.4" transform="translate(-884.61 794.27) rotate(-45)"/><rect class="cls-14" x="1177.86" y="239.18" width="8.33" height="1.4" transform="translate(-887.75 785.28) rotate(-45)"/><rect class="cls-14" x="1184.42" y="245.74" width="8.33" height="1.4" transform="translate(-890.47 791.84) rotate(-45)"/></svg>