<svg id="Layer_1" data-name="Layer 1" xmlns="http://www.w3.org/2000/svg" viewBox="0 0 169.17 167.45"><defs><style>.cls-1{fill:#59646d;}.cls-2{fill:#acbac2;}.cls-3{fill:#808d99;}.cls-4{fill:#3a4f5d;}.cls-5{fill:#163742;}.cls-6{fill:#d8a176;}.cls-7{fill:#b27e50;}.cls-8{fill:#99643f;}.cls-9{fill:#f7dab4;}.cls-10{fill:#d1dce4;}</style></defs><title>other-equipments</title><rect class="cls-1" x="19.01" y="20.79" width="135.66" height="130.1"/><path class="cls-2" d="M696.55,307h-3.72a15.21,15.21,0,0,0-15.29,15.14v5.65h19Z" transform="translate(-677.54 -307.02)"/><path class="cls-1" d="M846.71,327.81v-5.65a15.2,15.2,0,0,0-14.5-15.1v20.75Z" transform="translate(-677.54 -307.02)"/><path class="cls-3" d="M778.88,327.81h53.33V307.06c-.26,0-.52,0-.79,0H733.51l-.2,4.43-12-4.43H696.55v20.79Z" transform="translate(-677.54 -307.02)"/><polygon class="cls-3" points="19.01 136.61 19.01 120.1 19.01 20.79 0 20.79 0 151.75 19.01 151.75 19.01 136.61"/><rect class="cls-3" x="19.01" y="20.79" width="82.33" height="99.32"/><path class="cls-1" d="M677.54,457.91v.6c0,8.82,6.84,16,15.29,16h3.72V457.91Z" transform="translate(-677.54 -307.02)"/><path class="cls-4" d="M778.88,459.34v-.57H696.55v15.71H831.42c.27,0,.53,0,.79,0v-15.1Z" transform="translate(-677.54 -307.02)"/><path class="cls-4" d="M696.55,443.63v15.14h15.29A15.21,15.21,0,0,1,696.55,443.63Z" transform="translate(-677.54 -307.02)"/><path class="cls-4" d="M696.55,427.13v16.5a15.21,15.21,0,0,0,15.29,15.14h67V427.13Z" transform="translate(-677.54 -307.02)"/><polygon class="cls-4" points="154.67 20.79 154.67 35.76 154.67 119.03 154.67 135.35 154.67 150.89 169.17 150.89 169.17 20.79 154.67 20.79"/><path class="cls-4" d="M832.21,343V327.81H816.92A15.21,15.21,0,0,1,832.21,343Z" transform="translate(-677.54 -307.02)"/><path class="cls-4" d="M816.92,327.81h-38v99.32h53.33V343A15.21,15.21,0,0,0,816.92,327.81Z" transform="translate(-677.54 -307.02)"/><path class="cls-5" d="M832.21,474.44c8.07-.45,14.5-7.67,14.5-16.53h-14.5Z" transform="translate(-677.54 -307.02)"/><path class="cls-4" d="M816.92,458.77h-38v.57h53.33V443.63A15.21,15.21,0,0,1,816.92,458.77Z" transform="translate(-677.54 -307.02)"/><path class="cls-4" d="M778.88,458.77h38a15.21,15.21,0,0,0,15.29-15.14v-16.5H778.88Z" transform="translate(-677.54 -307.02)"/><path class="cls-1" d="M814.32,340.08l17.89,18.6V327.81H735.7L733.18,322a4.33,4.33,0,0,1-.72,0l-7.22,5.81H696.55v130.1H723l-11.66-19Z" transform="translate(-677.54 -307.02)"/><polygon class="cls-5" points="154.67 51.66 136.78 33.06 33.84 131.88 45.5 150.89 154.67 150.89 154.67 51.66"/><path class="cls-6" d="M758.6,390.82a22.34,22.34,0,0,0-5.59-.41,18.5,18.5,0,0,1,5.11.88Z" transform="translate(-677.54 -307.02)"/><path class="cls-7" d="M808.14,330.9h6.55v18h0L765,398.11c4.27,12.33-7.31,36.31-16.15,45.05a25.62,25.62,0,0,1-17,7.41,25.68,25.68,0,0,0,19.24-7.41c8.83-8.74,20.42-32.72,16.15-45.05l49.68-49.18h0v-18Z" transform="translate(-677.54 -307.02)"/><path class="cls-6" d="M765,398.11l49.68-49.18h0v-18h-6.55V344l-47.79,47.3a15.44,15.44,0,0,0-1.75-.47l-.48.47a18.5,18.5,0,0,0-5.11-.88c-13,.52-30.86,9.62-38.18,16.86a25.2,25.2,0,0,0,0,35.89,23.24,23.24,0,0,0,34,0C757.7,434.42,769.28,410.44,765,398.11Z" transform="translate(-677.54 -307.02)"/><ellipse class="cls-8" cx="53.2" cy="118.2" rx="12.77" ry="12.64"/><ellipse class="cls-9" cx="53.2" cy="118.2" rx="11.46" ry="11.34"/><path class="cls-3" d="M807.5,345.92l-.15-.15-71,69.54.2.11Z" transform="translate(-677.54 -307.02)"/><path class="cls-3" d="M808.21,346.64l-.15-.16L737.2,415.86l.18.12Z" transform="translate(-677.54 -307.02)"/><path class="cls-3" d="M808.93,347.35l-.16-.16L738,416.46l.16.15Z" transform="translate(-677.54 -307.02)"/><path class="cls-3" d="M738.92,417.29l70.72-69.23-.15-.15-70.72,69.23.07.06Z" transform="translate(-677.54 -307.02)"/><path class="cls-3" d="M810.35,348.77l-.15-.15-70.74,69.25a2.09,2.09,0,0,1,.14.17Z" transform="translate(-677.54 -307.02)"/><path class="cls-3" d="M811.06,349.49l-.15-.16-70.82,69.34.12.18Z" transform="translate(-677.54 -307.02)"/><path class="cls-3" d="M811.78,350.2l-.16-.15-71,69.48.11.2Z" transform="translate(-677.54 -307.02)"/><path class="cls-1" d="M736.78,415.58,720.94,431.1l.12.19L737,415.7Z" transform="translate(-677.54 -307.02)"/><path class="cls-1" d="M737.63,416.16,721.51,432l.13.17L737.8,416.3Z" transform="translate(-677.54 -307.02)"/><path class="cls-1" d="M738.42,416.8l-16.27,15.93.15.16L738.57,417Z" transform="translate(-677.54 -307.02)"/><path class="cls-1" d="M739.14,417.51l-16.28,15.94.16.15,16.26-15.93Z" transform="translate(-677.54 -307.02)"/><path class="cls-1" d="M723.8,434.24l16.13-15.79-.14-.17-16.17,15.83Z" transform="translate(-677.54 -307.02)"/><path class="cls-1" d="M724.64,434.82,740.5,419.3a1.18,1.18,0,0,0-.11-.19l-15.94,15.6Z" transform="translate(-677.54 -307.02)"/><path class="cls-1" d="M725.56,435.34,741,420.21a2,2,0,0,0-.1-.21l-15.56,15.23Z" transform="translate(-677.54 -307.02)"/><polygon class="cls-10" points="129.88 38.82 40.48 126.35 40.32 126.2 129.73 38.67 129.88 38.82"/><polygon class="cls-10" points="130.6 39.53 41.19 127.06 41.03 126.91 130.44 39.38 130.6 39.53"/><polygon class="cls-10" points="131.31 40.25 41.9 127.78 41.75 127.62 131.16 40.09 131.31 40.25"/><polygon class="cls-10" points="132.02 40.96 42.61 128.49 42.46 128.34 131.87 40.81 132.02 40.96"/><polygon class="cls-10" points="132.73 41.67 43.33 129.2 43.17 129.05 132.58 41.52 132.73 41.67"/><polygon class="cls-10" points="133.45 42.39 44.04 129.91 43.88 129.76 133.29 42.23 133.45 42.39"/><polygon class="cls-10" points="134.16 43.1 44.75 130.63 44.6 130.47 134 42.95 134.16 43.1"/><polygon class="cls-2" points="46.37 130.69 45 132.05 39.22 126.33 40.59 124.97 46.37 130.69"/><path class="cls-3" d="M717.94,433.3l.15.15,2.69-2.62a2,2,0,0,1-.11-.2Z" transform="translate(-677.54 -307.02)"/><path class="cls-3" d="M718.65,434l.16.16,2.52-2.48c0-.06-.09-.11-.13-.18Z" transform="translate(-677.54 -307.02)"/><path class="cls-3" d="M719.37,434.72l.15.16L722,432.5l-.14-.17Z" transform="translate(-677.54 -307.02)"/><path class="cls-3" d="M722.48,433.08l-2.4,2.36.15.15,2.4-2.35h0Z" transform="translate(-677.54 -307.02)"/><path class="cls-3" d="M720.79,436.15l.15.15,2.44-2.38-.16-.15Z" transform="translate(-677.54 -307.02)"/><path class="cls-3" d="M721.5,436.86l.16.16,2.54-2.49-.19-.13Z" transform="translate(-677.54 -307.02)"/><path class="cls-3" d="M722.21,437.58l.16.15,2.71-2.65-.2-.11Z" transform="translate(-677.54 -307.02)"/></svg>