<svg id="Layer_1" data-name="Layer 1" xmlns="http://www.w3.org/2000/svg" viewBox="0 0 207.14 207.14"><defs><style>.cls-1{fill:#59646d;}.cls-2{fill:#acbac2;}.cls-3{fill:#808d99;}.cls-4{fill:#3a4f5d;}.cls-5{fill:#163742;}</style></defs><title>stone</title><rect class="cls-1" x="23.28" y="25.71" width="166.12" height="160.94"/><path class="cls-2" d="M879.84,436.52h-4.55a18.72,18.72,0,0,0-18.72,18.72v7h23.27Z" transform="translate(-856.57 -436.52)"/><path class="cls-1" d="M1063.71,462.23v-7A18.71,18.71,0,0,0,1046,436.57v25.66Z" transform="translate(-856.57 -436.52)"/><path class="cls-3" d="M980.65,462.23H1046V436.57c-.33,0-.65-.05-1-.05H925.1l-.24,5.48-14.69-5.48H879.84v25.71Z" transform="translate(-856.57 -436.52)"/><polygon class="cls-3" points="23.28 168.99 23.28 148.57 23.28 25.71 0 25.71 0 187.71 23.28 187.71 23.28 168.99"/><rect class="cls-3" x="23.28" y="25.71" width="100.81" height="122.86"/><path class="cls-1" d="M856.57,623.17v.75c0,10.9,8.38,19.74,18.72,19.74h4.55V623.17Z" transform="translate(-856.57 -436.52)"/><path class="cls-4" d="M980.65,624.94v-.71H879.84v19.43H1045c.32,0,.64,0,1,0V624.94Z" transform="translate(-856.57 -436.52)"/><path class="cls-4" d="M879.84,605.51v18.72h18.72A18.72,18.72,0,0,1,879.84,605.51Z" transform="translate(-856.57 -436.52)"/><path class="cls-4" d="M879.84,585.09v20.42a18.72,18.72,0,0,0,18.72,18.72h82.09V585.09Z" transform="translate(-856.57 -436.52)"/><polygon class="cls-4" points="189.39 25.71 189.39 44.23 189.39 147.24 189.39 167.44 189.39 186.65 207.14 186.65 207.14 25.71 189.39 25.71"/><path class="cls-4" d="M1046,481V462.23h-18.72A18.72,18.72,0,0,1,1046,481Z" transform="translate(-856.57 -436.52)"/><path class="cls-4" d="M1027.24,462.23H980.65V585.09H1046V481A18.72,18.72,0,0,0,1027.24,462.23Z" transform="translate(-856.57 -436.52)"/><path class="cls-5" d="M1046,643.61c9.88-.55,17.75-9.48,17.75-20.44H1046Z" transform="translate(-856.57 -436.52)"/><path class="cls-4" d="M1027.24,624.23H980.65v.71H1046V605.51A18.72,18.72,0,0,1,1027.24,624.23Z" transform="translate(-856.57 -436.52)"/><path class="cls-4" d="M980.65,624.23h46.59A18.72,18.72,0,0,0,1046,605.51V585.09H980.65Z" transform="translate(-856.57 -436.52)"/><path class="cls-1" d="M1046,623.17H879.84V462.23H915l8.83-7.18a5.15,5.15,0,0,0,.88,0l3.09,7.2H1046Z" transform="translate(-856.57 -436.52)"/></svg>